<?xml version="1.0" encoding="UTF-8" standalone="no"?>
<!-- Generator: Adobe Illustrator 19.0.0, SVG Export Plug-In . SVG Version: 6.00 Build 0)  -->

<svg
   version="1.1"
   id="Layer_1"
   x="0px"
   y="0px"
   viewBox="0 0 128 128"
   xml:space="preserve"
   sodipodi:docname="earth-svgrepo-com (1).svg"
   width="128"
   height="128"
   inkscape:version="1.1 (c68e22c387, 2021-05-23)"
   xmlns:inkscape="http://www.inkscape.org/namespaces/inkscape"
   xmlns:sodipodi="http://sodipodi.sourceforge.net/DTD/sodipodi-0.dtd"
   xmlns="http://www.w3.org/2000/svg"
   xmlns:svg="http://www.w3.org/2000/svg"><defs
   id="defs41" /><sodipodi:namedview
   id="namedview39"
   pagecolor="#ffffff"
   bordercolor="#666666"
   borderopacity="1.0"
   inkscape:pageshadow="2"
   inkscape:pageopacity="0.0"
   inkscape:pagecheckerboard="0"
   showgrid="false"
   inkscape:zoom="3.25"
   inkscape:cx="119.38462"
   inkscape:cy="55.538462"
   inkscape:window-width="1920"
   inkscape:window-height="1017"
   inkscape:window-x="1912"
   inkscape:window-y="-8"
   inkscape:window-maximized="1"
   inkscape:current-layer="Layer_1" />
<g
   id="g2564"
   transform="matrix(0.28619935,0,0,0.28619935,-9.2675753,-9.5284295)"
   style="display:inline;fill:#ffffff;fill-opacity:1"><g
     id="g6"
     style="fill:#ffffff;fill-opacity:1">
	<g
   id="g4"
   style="fill:#ffffff;fill-opacity:1">
		<path
   d="m 146.742,366.51 14.737,86.124 c -6.477,-3.126 -12.836,-6.589 -19.057,-10.382 C 92.67,411.913 57.709,364.017 43.982,307.384 32.249,258.979 37.242,209.151 57.878,164.627 l 67.258,38.492 c 18.472,10.572 27.747,32.371 22.552,53.011 -1.879,7.467 0.158,15.265 5.449,20.859 l 1.921,2.031 c 16.979,17.954 17.303,46.382 0.735,64.718 l -3.593,3.975 c -4.634,5.13 -6.624,11.98 -5.458,18.797 z m 66.6,-283.696 -80.454,45.28 c -1.907,1.073 -4.044,1.624 -6.198,1.624 -1.032,0 -2.067,-0.126 -3.083,-0.382 l -38.039,-9.572 c 30.016,-37.712 71.441,-64.255 119.041,-75.792 7.861,-1.906 15.759,-3.349 23.665,-4.377 -0.009,0.035 -0.011,0.071 -0.02,0.105 L 219.4,74.886 c -0.847,3.362 -3.037,6.229 -6.058,7.928 z m 94.051,385.196 c -24.655,5.977 -49.68,7.613 -74.186,5.057 l -5.295,-32.311 c -0.93,-5.676 2.09,-11.264 7.348,-13.596 l 16.549,-7.337 c 25.441,-11.277 55.156,-2.694 70.665,20.409 l 9.758,14.537 8.26,2.39 c -10.633,4.44 -21.684,8.085 -33.099,10.851 z M 464.308,321.084 c -1.044,-0.543 -2.022,-1.237 -2.898,-2.076 l -12.154,-11.632 c -8.198,-7.847 -18.976,-11.977 -30.306,-11.608 -11.344,0.363 -21.822,5.163 -29.503,13.518 -9.99,10.869 -23.506,18.232 -38.056,20.735 l -43.211,7.435 c -2.588,0.446 -5.186,0.665 -7.766,0.665 -10.697,0 -21.105,-3.766 -29.412,-10.802 -10.311,-8.734 -16.185,-21.493 -16.115,-35.005 l 0.201,-38.902 c 0.048,-9.102 -2.939,-18.121 -8.409,-25.395 l -22.437,-29.838 c -3.131,-4.164 -3.385,-9.822 -0.641,-14.25 l 35.448,-57.201 c 2.211,-3.57 6.054,-5.808 10.251,-5.971 l 84.007,-3.26 32.661,-35.694 c 0.193,-0.211 0.406,-0.397 0.61,-0.593 40.713,30.305 69.338,73.444 81.443,123.385 9.471,39.083 8.046,79.093 -3.713,116.489 z"
   id="path2"
   sodipodi:nodetypes="cccccccsccccccscccccccccccccccccccccccsccccccccccccc"
   style="fill:#ffffff;fill-opacity:1" />
	</g>
</g></g>















<circle
   style="display:inline;fill:none;stroke:#ffffff;stroke-width:2.9854;stroke-linejoin:bevel;stroke-miterlimit:4;stroke-dasharray:none;stroke-opacity:1"
   id="path2457"
   cx="64"
   cy="64"
   r="62.507301" /></svg>