<?xml version="1.0" standalone="no"?><!DOCTYPE svg PUBLIC "-//W3C//DTD SVG 1.1//EN" "http://www.w3.org/Graphics/SVG/1.1/DTD/svg11.dtd"><svg t="1585560134945" class="icon" viewBox="0 0 1024 1024" version="1.1" xmlns="http://www.w3.org/2000/svg" p-id="1666" xmlns:xlink="http://www.w3.org/1999/xlink" width="200" height="200"><defs><style type="text/css">@font-face { font-weight: 400; font-style: normal; font-family: Inter-Loom; src: url("https://cdn.loom.com/assets/fonts/inter/Inter-UI-Regular.woff2") format("woff2"); }
@font-face { font-weight: 400; font-style: italic; font-family: Inter-Loom; src: url("https://cdn.loom.com/assets/fonts/inter/Inter-UI-Italic.woff2") format("woff2"); }
@font-face { font-weight: 500; font-style: normal; font-family: Inter-Loom; src: url("https://cdn.loom.com/assets/fonts/inter/Inter-UI-Medium.woff2") format("woff2"); }
@font-face { font-weight: 500; font-style: italic; font-family: Inter-Loom; src: url("https://cdn.loom.com/assets/fonts/inter/Inter-UI-MediumItalic.woff2") format("woff2"); }
@font-face { font-weight: 700; font-style: normal; font-family: Inter-Loom; src: url("https://cdn.loom.com/assets/fonts/inter/Inter-UI-Bold.woff2") format("woff2"); }
@font-face { font-weight: 700; font-style: italic; font-family: Inter-Loom; src: url("https://cdn.loom.com/assets/fonts/inter/Inter-UI-BoldItalic.woff2") format("woff2"); }
@font-face { font-weight: 900; font-style: normal; font-family: Inter-Loom; src: url("https://cdn.loom.com/assets/fonts/inter/Inter-UI-Black.woff2") format("woff2"); }
@font-face { font-weight: 900; font-style: italic; font-family: Inter-Loom; src: url("https://cdn.loom.com/assets/fonts/inter/Inter-UI-BlackItalic.woff2") format("woff2"); }
</style></defs><path d="M406.0416 940.21632l-248.832-22.70208 410.74176-229.51936a40.35584 40.35584 0 0 1 38.4-0.59904l260.41344 141.08672-70.24128 91.4176z" fill="#F4CA1C" p-id="1667"></path><path d="M759.296 46.08H264.704A157.48608 157.48608 0 0 0 107.52 203.48928v622.14144A157.48608 157.48608 0 0 0 264.704 983.04h494.592a157.48608 157.48608 0 0 0 157.184-157.40928V203.48928A157.48608 157.48608 0 0 0 759.296 46.08zM264.704 117.6064h494.592a85.92384 85.92384 0 0 1 85.77024 85.88288V257.0752h-666.112V203.48928A85.92896 85.92896 0 0 1 264.704 117.6064z m580.34176 708.02432a85.42208 85.42208 0 0 1-10.93632 41.85088l-294.79424-152.89344-2.61632-0.88064a75.65824 75.65824 0 0 0-47.02208-0.46592l-2.6368 0.82944-299.8272 148.10112a85.3248 85.3248 0 0 1-8.26368-36.54144V328.59648h666.112v497.03424zM264.704 911.5136a85.83168 85.83168 0 0 1-13.56288-1.1776l261.28384-129.05984a1.4336 1.4336 0 0 0 0.14848 0l250.71104 130.048c-1.34656 0.06656-2.66752 0.2048-4.02944 0.2048H264.704z m-4.81792-265.216a28.5952 28.5952 0 0 0 28.57472-28.61056v-61.72672l47.26784 72.77568 0.55808 0.8192a32.6144 32.6144 0 0 0 59.33568-18.74944v-145.7152a28.57472 28.57472 0 1 0-57.14432 0v62.8992L291.2256 455.2448l-0.54272-0.79872a32.6144 32.6144 0 0 0-59.35104 18.72896v144.49664a28.5952 28.5952 0 0 0 28.57472 28.61056z m228.43392-8.3456h51.5072a28.61056 28.61056 0 0 0 0-57.216H488.34048a11.95008 11.95008 0 0 1-11.91936-11.93984v-1.1776h63.26272a28.61056 28.61056 0 0 0 0-57.216H476.416v-1.18784a11.94496 11.94496 0 0 1 11.91936-11.93472h50.51392a28.61056 28.61056 0 0 0 0-57.22112h-50.5088a69.19168 69.19168 0 0 0-69.0688 69.15584v59.56608a69.19168 69.19168 0 0 0 69.0688 69.1712z m121.18016-26.51648l0.512 2.21184a32.60928 32.60928 0 0 0 61.9008 2.69824l19.8912-58.88 19.77344 59.53024 0.34816 0.98816a32.47616 32.47616 0 0 0 30.5152 21.23264c0.60416 0 1.20832 0 1.8176-0.05632a32.47616 32.47616 0 0 0 29.83936-24.576l24.63744-139.73504a28.57472 28.57472 0 1 0-56.23808-9.95328l-7.3216 41.66656-12.2368-36.864-0.34304-0.96768a32.36864 32.36864 0 0 0-30.464-21.25312h-0.1024a32.36864 32.36864 0 0 0-30.4896 21.05856l-13.89568 41.11872-8.50432-43.008a28.57472 28.57472 0 1 0-56.05888 11.12064z" fill="#595BB3" p-id="1668"></path></svg>